<svg width="18" height="24" viewBox="0 0 18 24" fill="none" xmlns="http://www.w3.org/2000/svg">
<path d="M14.0002 24H4.00521C3.42682 23.9994 2.85537 23.8741 2.32986 23.6325C1.80435 23.3908 1.33717 23.0387 0.960213 22.6C0.589386 22.1705 0.315589 21.666 0.157508 21.121C-0.000572965 20.576 -0.039217 20.0033 0.0442131 19.442C0.580709 16.5173 2.14084 13.8792 4.44521 12C2.14081 10.1202 0.581003 7.48124 0.0452132 4.556C-0.0380537 3.99509 0.000579298 3.42283 0.15848 2.8782C0.31638 2.33357 0.589836 1.82939 0.960213 1.4C1.33717 0.961326 1.80435 0.60916 2.32986 0.367548C2.85537 0.125935 3.42682 0.000566288 4.00521 0L14.0002 0C14.5785 0.000512143 15.1498 0.125862 15.6751 0.367483C16.2005 0.609104 16.6675 0.9613 17.0442 1.4C17.4151 1.82895 17.6891 2.33285 17.8475 2.87732C18.0059 3.42179 18.0451 3.99403 17.9622 4.555C17.4205 7.48095 15.8573 10.1194 13.5512 12C15.856 13.8822 17.4174 16.5217 17.9572 19.448C18.0401 20.0091 18.0011 20.5815 17.8426 21.1262C17.6842 21.6708 17.4102 22.1749 17.0392 22.604C16.6627 23.0413 16.1963 23.3924 15.6719 23.6333C15.1475 23.8742 14.5773 23.9993 14.0002 24ZM14.0002 2H4.00521C3.71513 1.99976 3.42843 2.06218 3.1647 2.18299C2.90098 2.30381 2.66647 2.48016 2.47721 2.7C2.29231 2.91037 2.15574 3.15871 2.07714 3.42754C1.99853 3.69636 1.97978 3.97915 2.02221 4.256C2.39721 6.756 3.94421 9.096 6.62221 11.213C6.74046 11.3066 6.83599 11.4258 6.90166 11.5615C6.96734 11.6973 7.00145 11.8462 7.00145 11.997C7.00145 12.1478 6.96734 12.2967 6.90166 12.4325C6.83599 12.5682 6.74046 12.6874 6.62221 12.781C3.94421 14.9 2.40021 17.242 2.02221 19.741C1.97932 20.0183 1.99784 20.3017 2.07646 20.5711C2.15508 20.8404 2.29189 21.0893 2.47721 21.3C2.66647 21.5198 2.90098 21.6962 3.1647 21.817C3.42843 21.9378 3.71513 22.0002 4.00521 22H14.0002C14.2903 22.0002 14.577 21.9378 14.8407 21.817C15.1044 21.6962 15.339 21.5198 15.5282 21.3C15.713 21.0899 15.8496 20.842 15.9284 20.5735C16.0072 20.3051 16.0262 20.0226 15.9842 19.746C15.6112 17.259 14.0642 14.917 11.3842 12.784C11.2667 12.6903 11.1718 12.5714 11.1066 12.436C11.0414 12.3006 11.0075 12.1523 11.0075 12.002C11.0075 11.8517 11.0414 11.7034 11.1066 11.568C11.1718 11.4326 11.2667 11.3137 11.3842 11.22C14.0652 9.087 15.6122 6.745 15.9842 4.257C16.0261 3.97955 16.0065 3.69629 15.9268 3.42725C15.8472 3.1582 15.7094 2.90994 15.5232 2.7C15.3345 2.4808 15.1008 2.30482 14.838 2.18403C14.5752 2.06324 14.2894 2.00047 14.0002 2Z" fill="white"/>
</svg>
